<mxfile host="app.diagrams.net" modified="2021-12-22T08:19:20.486Z" agent="5.0 (Windows)" etag="579YMc1FZZ0iy8WDWlZ9" version="16.0.0" type="github">
  <diagram id="jYC-ythPqar3aE_Ixzmb" name="Page-1">
    <mxGraphModel dx="1043" dy="505" grid="1" gridSize="10" guides="1" tooltips="1" connect="1" arrows="1" fold="1" page="1" pageScale="1" pageWidth="1100" pageHeight="850" math="0" shadow="0">
      <root>
        <mxCell id="0" />
        <mxCell id="1" parent="0" />
        <mxCell id="2z4vMCHCRdN8KvV0VYsq-2" value="&lt;span&gt;&lt;span&gt;&lt;span class=&quot;kqEaA z8gr9e&quot;&gt;&lt;b&gt;Categories / Products&lt;/b&gt;&lt;br&gt;&lt;/span&gt;&lt;/span&gt;&lt;/span&gt;" style="whiteSpace=wrap;html=1;aspect=fixed;" vertex="1" parent="1">
          <mxGeometry x="240" y="230" width="80" height="80" as="geometry" />
        </mxCell>
        <mxCell id="2z4vMCHCRdN8KvV0VYsq-3" value="" style="strokeWidth=2;html=1;shape=mxgraph.flowchart.annotation_2;align=left;labelPosition=right;pointerEvents=1;" vertex="1" parent="1">
          <mxGeometry x="320" y="220" width="50" height="100" as="geometry" />
        </mxCell>
        <mxCell id="2z4vMCHCRdN8KvV0VYsq-18" value="" style="edgeStyle=orthogonalEdgeStyle;rounded=0;orthogonalLoop=1;jettySize=auto;html=1;" edge="1" parent="1" source="2z4vMCHCRdN8KvV0VYsq-4" target="2z4vMCHCRdN8KvV0VYsq-17">
          <mxGeometry relative="1" as="geometry" />
        </mxCell>
        <mxCell id="2z4vMCHCRdN8KvV0VYsq-4" value="Add to cart" style="rounded=1;whiteSpace=wrap;html=1;" vertex="1" parent="1">
          <mxGeometry x="370" y="200" width="100" height="30" as="geometry" />
        </mxCell>
        <mxCell id="2z4vMCHCRdN8KvV0VYsq-20" value="" style="edgeStyle=orthogonalEdgeStyle;rounded=0;orthogonalLoop=1;jettySize=auto;html=1;" edge="1" parent="1" source="2z4vMCHCRdN8KvV0VYsq-5" target="2z4vMCHCRdN8KvV0VYsq-19">
          <mxGeometry relative="1" as="geometry" />
        </mxCell>
        <mxCell id="2z4vMCHCRdN8KvV0VYsq-5" value="Buy Now" style="rounded=1;whiteSpace=wrap;html=1;" vertex="1" parent="1">
          <mxGeometry x="370" y="310" width="100" height="30" as="geometry" />
        </mxCell>
        <mxCell id="2z4vMCHCRdN8KvV0VYsq-7" value="Register" style="rounded=1;whiteSpace=wrap;html=1;" vertex="1" parent="1">
          <mxGeometry y="260" width="70" height="20" as="geometry" />
        </mxCell>
        <mxCell id="2z4vMCHCRdN8KvV0VYsq-16" value="" style="edgeStyle=orthogonalEdgeStyle;rounded=0;orthogonalLoop=1;jettySize=auto;html=1;" edge="1" parent="1" source="2z4vMCHCRdN8KvV0VYsq-9" target="2z4vMCHCRdN8KvV0VYsq-2">
          <mxGeometry relative="1" as="geometry" />
        </mxCell>
        <mxCell id="2z4vMCHCRdN8KvV0VYsq-9" value="Login" style="rounded=1;whiteSpace=wrap;html=1;" vertex="1" parent="1">
          <mxGeometry x="120" y="260" width="80" height="20" as="geometry" />
        </mxCell>
        <mxCell id="2z4vMCHCRdN8KvV0VYsq-11" value="" style="endArrow=classic;startArrow=classic;html=1;rounded=0;" edge="1" parent="1">
          <mxGeometry width="50" height="50" relative="1" as="geometry">
            <mxPoint x="70" y="269.5" as="sourcePoint" />
            <mxPoint x="120" y="270" as="targetPoint" />
          </mxGeometry>
        </mxCell>
        <mxCell id="2z4vMCHCRdN8KvV0VYsq-21" value="" style="edgeStyle=orthogonalEdgeStyle;rounded=0;orthogonalLoop=1;jettySize=auto;html=1;" edge="1" parent="1" source="2z4vMCHCRdN8KvV0VYsq-17" target="2z4vMCHCRdN8KvV0VYsq-19">
          <mxGeometry relative="1" as="geometry" />
        </mxCell>
        <mxCell id="2z4vMCHCRdN8KvV0VYsq-17" value="Cart Checkout" style="whiteSpace=wrap;html=1;rounded=1;" vertex="1" parent="1">
          <mxGeometry x="520" y="197.5" width="90" height="35" as="geometry" />
        </mxCell>
        <mxCell id="2z4vMCHCRdN8KvV0VYsq-23" value="" style="edgeStyle=orthogonalEdgeStyle;rounded=0;orthogonalLoop=1;jettySize=auto;html=1;" edge="1" parent="1" source="2z4vMCHCRdN8KvV0VYsq-19" target="2z4vMCHCRdN8KvV0VYsq-22">
          <mxGeometry relative="1" as="geometry" />
        </mxCell>
        <mxCell id="2z4vMCHCRdN8KvV0VYsq-19" value="Get Dilevery Details " style="rounded=1;whiteSpace=wrap;html=1;" vertex="1" parent="1">
          <mxGeometry x="620" y="255" width="100" height="30" as="geometry" />
        </mxCell>
        <mxCell id="2z4vMCHCRdN8KvV0VYsq-25" value="" style="edgeStyle=orthogonalEdgeStyle;rounded=0;orthogonalLoop=1;jettySize=auto;html=1;" edge="1" parent="1" source="2z4vMCHCRdN8KvV0VYsq-22" target="2z4vMCHCRdN8KvV0VYsq-24">
          <mxGeometry relative="1" as="geometry" />
        </mxCell>
        <mxCell id="2z4vMCHCRdN8KvV0VYsq-22" value="Confirmation and Payment" style="rounded=1;whiteSpace=wrap;html=1;" vertex="1" parent="1">
          <mxGeometry x="760" y="255" width="100" height="30" as="geometry" />
        </mxCell>
        <mxCell id="2z4vMCHCRdN8KvV0VYsq-26" style="edgeStyle=orthogonalEdgeStyle;rounded=0;orthogonalLoop=1;jettySize=auto;html=1;entryX=0.5;entryY=1;entryDx=0;entryDy=0;" edge="1" parent="1" source="2z4vMCHCRdN8KvV0VYsq-24" target="2z4vMCHCRdN8KvV0VYsq-2">
          <mxGeometry relative="1" as="geometry">
            <Array as="points">
              <mxPoint x="960" y="390" />
              <mxPoint x="280" y="390" />
            </Array>
          </mxGeometry>
        </mxCell>
        <mxCell id="2z4vMCHCRdN8KvV0VYsq-24" value="Track Order" style="rounded=1;whiteSpace=wrap;html=1;" vertex="1" parent="1">
          <mxGeometry x="910" y="255" width="100" height="30" as="geometry" />
        </mxCell>
      </root>
    </mxGraphModel>
  </diagram>
</mxfile>
